<?xml version="1.0" encoding="utf-8"?>
<!-- Generator: Adobe Illustrator 16.0.0, SVG Export Plug-In . SVG Version: 6.00 Build 0)  -->
<!DOCTYPE svg PUBLIC "-//W3C//DTD SVG 1.1//EN" "http://www.w3.org/Graphics/SVG/1.1/DTD/svg11.dtd">
<svg version="1.1" id="Layer_1" xmlns="http://www.w3.org/2000/svg" xmlns:xlink="http://www.w3.org/1999/xlink" x="0px" y="0px"
	 width="475.185px" height="268.565px" viewBox="0 0 475.185 268.565" enable-background="new 0 0 475.185 268.565"
	 xml:space="preserve">
<g>
	<path fill-rule="evenodd" clip-rule="evenodd" d="M4.815,121.753c0.126-0.617,0.549-0.592,0.883-0.685
		c2.065-0.573,4.146-1.096,6.196-1.721c2.906-0.887,5.703-2.045,8.36-3.539c5.624-3.162,9.104-7.916,10.456-14.189
		c0.481-2.233,0.806-4.521,0.957-6.802c0.221-3.319,0.297-6.653,0.303-9.982C32,69.517,31.976,54.197,31.989,38.878
		c0.003-3.773,0.074-7.545,0.586-11.296c0.45-3.308,1.124-6.559,2.254-9.705c2.492-6.946,7.003-12.099,13.668-15.314
		c1.197-0.578,2.438-1.064,3.666-1.579C53.891,0.259,55.678-0.001,57.566,0c86.216,0.024,172.432,0.02,258.646,0.019
		c0.883,0,1.765,0,2.541,0c0.585,0.754,0.124,1.264-0.096,1.775c-2.75,6.385-5.513,12.765-8.271,19.146
		c-0.587,1.358-1.18,2.714-1.751,4.077c-0.136,0.323-0.198,0.676-0.269,0.924c0.393,0.571,0.87,0.457,1.288,0.459
		c2.96,0.014,5.92,0.011,8.88,0.009c19.39-0.013,38.778-0.013,58.168-0.045c15.54-0.026,31.08-0.077,46.62-0.161
		c1.74-0.01,3.367,0.276,4.973,0.905c3.544,1.389,6.841,3.179,9.654,5.778c3.517,3.249,5.754,7.285,7.214,11.794
		c1.169,3.606,1.865,7.319,2.153,11.084c0.281,3.686,0.455,7.388,0.468,11.083c0.052,15.022,0.021,30.046,0.024,45.069
		c0,3.478-0.02,6.961,0.444,10.416c0.275,2.048,0.568,4.109,1.073,6.109c1.409,5.589,4.692,9.799,9.665,12.716
		c3.345,1.963,6.95,3.272,10.656,4.337c1.278,0.367,2.584,0.64,3.868,0.985c0.481,0.13,0.938,0.347,1.668,0.622
		c-0.512,0.31-0.775,0.556-1.084,0.642c-1.709,0.476-3.438,0.878-5.143,1.369c-2.99,0.864-5.877,1.992-8.646,3.433
		c-6.582,3.428-10.347,8.863-11.583,16.121c-0.522,3.067-0.861,6.156-0.868,9.271c-0.029,13.765-0.044,27.529-0.063,41.295
		c-0.006,4.292,0.026,8.584-0.014,12.876c-0.046,5.043-0.491,10.047-1.708,14.959c-0.124,0.502-0.269,1-0.407,1.498
		c-2.821,10.118-9.468,16.476-19.344,19.641c-0.554,0.178-1.149,0.239-1.73,0.312c-0.364,0.045-0.739,0.01-1.109,0.01
		c-86.215,0.01-172.43,0.02-258.646,0.023c-0.787,0.001-1.591,0.095-2.546-0.186c0.338-0.849,0.608-1.597,0.93-2.322
		c3.147-7.1,6.308-14.193,9.448-21.296c0.288-0.652,0.776-1.266,0.637-2.197c-0.364-0.044-0.705-0.113-1.047-0.122
		c-0.74-0.02-1.48-0.009-2.221-0.009c-27.751-0.001-55.502,0.001-83.253-0.001c-10.361-0.002-20.722-0.031-31.082,0.002
		c-1.591,0.005-3.082-0.229-4.523-0.881c-0.875-0.396-1.779-0.729-2.646-1.146c-6.365-3.061-10.814-7.877-13.3-14.505
		c-1.386-3.695-2.146-7.528-2.635-11.429c-0.507-4.048-0.583-8.116-0.587-12.187c-0.016-14.432-0.006-28.862-0.045-43.293
		c-0.01-3.477-0.126-6.954-0.271-10.429c-0.117-2.813-0.564-5.588-1.291-8.315c-1.441-5.417-4.586-9.537-9.378-12.422
		c-3.841-2.312-8.032-3.737-12.334-4.881c-1.072-0.285-2.152-0.539-3.222-0.833C5.232,122.032,5.016,121.86,4.815,121.753z
		 M202.482,167.985c-0.783,0.96-1.438,1.75-2.078,2.551c-4.486,5.617-9.275,10.947-14.644,15.749
		c-6.888,6.16-14.825,10.219-23.877,12.062c-6.935,1.412-13.928,1.689-20.977,1.033c-7.97-0.742-15.558-2.761-22.699-6.418
		c-9.933-5.086-17.471-12.555-22.54-22.511c-4.501-8.842-6.681-18.305-7.514-28.116c-0.464-5.458-0.502-10.929-0.228-16.406
		c0.297-5.92,0.873-11.804,2.001-17.624c1.5-7.744,3.93-15.168,7.704-22.124c2.736-5.042,6.04-9.661,10.214-13.618
		c5.871-5.566,12.822-9.234,20.572-11.39c9.964-2.771,20.015-2.811,30.079-0.583c8.562,1.896,16.11,5.798,22.538,11.787
		c4.041,3.766,7.24,8.196,9.963,12.981c2.79,4.904,4.924,10.099,6.761,15.423c0.237,0.688,0.512,1.362,0.777,2.066
		c1.54,0.269,2.973,0.327,4.534-0.046c0.021-0.753,0.089-1.404,0.05-2.051c-0.13-2.141-0.303-4.278-0.452-6.418
		c-0.34-4.869-0.67-9.739-1.015-14.609c-0.401-5.68-0.81-11.36-1.221-17.04c-0.283-3.909-0.571-7.818-0.873-11.726
		c-0.026-0.35-0.168-0.69-0.268-1.082c-1.69-0.345-3.291-0.241-5.034-0.092c-0.257,0.756-0.534,1.506-0.767,2.269
		c-0.632,2.078-1.568,3.985-2.991,5.646c-0.788,0.92-1.733,1.611-2.845,2.067c-1.868,0.768-3.772,0.756-5.633,0.032
		c-1.72-0.67-3.408-1.429-5.082-2.209c-13.864-6.457-28.374-9.087-43.62-7.437c-10.855,1.175-21.165,4.165-30.866,9.205
		C87.096,67.336,75.68,79.172,68.033,94.653c-4.907,9.934-7.666,20.449-8.465,31.513c-0.64,8.854-0.036,17.597,1.966,26.228
		c3.4,14.661,10.577,27.252,21.333,37.732c11.763,11.463,26.077,17.65,42.232,19.856c4.996,0.682,10.011,0.924,15.05,0.897
		c6.614-0.035,13.139-0.773,19.568-2.308c10.701-2.554,20.257-7.36,28.561-14.606c7.265-6.34,13.063-13.879,18.035-22.092
		c0.185-0.304,0.299-0.649,0.47-1.027C205.583,169.597,204.125,168.92,202.482,167.985z M204.733,200.986
		c-2.981,5.536-5.97,11.069-8.933,16.616c-0.26,0.487-0.762,0.948-0.408,1.767c4.217,0.067,8.495,0.136,12.628,0.202
		c0.259-0.229,0.408-0.306,0.474-0.427c30.074-55.978,60.143-111.958,90.209-167.94c0.21-0.39,0.394-0.793,0.583-1.193
		c0.03-0.064,0.044-0.147,0.032-0.217c-0.01-0.065-0.062-0.124-0.096-0.186c-1.641-0.358-10.313-0.495-12.883-0.188
		c-0.361,0.649-0.764,1.352-1.147,2.064 M368.314,156.272c-0.065-1.018-0.142-1.654-0.141-2.289c0.006-2.96,0.019-5.919,0.058-8.879
		c0.066-5.104,0.163-10.209,0.224-15.313c0.008-0.712,0.244-1.48-0.354-2.213c-1.421,0.061-2.892,0.09-4.357,0.193
		c-1.522,0.106-3.085-0.104-4.579,0.426c0,0.661-0.04,1.247,0.007,1.826c0.205,2.506,0.491,5.007,0.647,7.516
		c0.527,8.496,0.612,17.004,0.574,25.514c-0.052,11.541,0.072,23.084-0.392,34.621c-0.02,0.495,0.065,0.994,0.108,1.578
		c1.491,0.262,2.894,0.164,4.279,0.127c1.438-0.04,2.92,0.29,4.42-0.311c-0.259-12.405-0.477-24.741-0.364-37.056
		c2.516-2.111,5.239-3.559,8.252-4.436c3.167-0.922,6.386-1.233,9.646-0.487c3.89,0.891,6.46,3.152,7.306,7.142
		c0.244,1.153,0.479,2.332,0.508,3.505c0.08,3.325,0.083,6.654,0.058,9.982c-0.05,6.585-0.313,13.163-0.872,19.728
		c-0.049,0.563-0.007,1.135-0.007,1.672c2.254,0.426,7.357,0.375,8.98-0.092c0.026-0.313,0.081-0.673,0.082-1.031
		c0.003-0.961-0.013-1.923-0.027-2.885c-0.128-9.024-0.418-18.047,0.012-27.073c0.152-3.188-0.124-6.353-1.124-9.423
		c-1.042-3.2-3.062-5.54-6.084-6.987c-0.995-0.477-2.033-0.912-3.098-1.188c-7.609-1.971-14.659-0.754-21.087,3.828
		C370.21,154.822,369.457,155.414,368.314,156.272z M302.821,199.434c-0.102-0.894-0.143-1.471-0.235-2.039
		c-0.965-5.938-1.086-11.922-0.922-17.918c0.093-3.399,0.211-6.8,0.34-10.198c0.096-2.518,0.088-5.024-0.294-7.524
		c-0.812-5.303-3.658-8.927-8.752-10.734c-2.246-0.797-4.567-1.274-6.935-1.396c-6.385-0.326-12.707,0.161-18.927,1.708
		c-0.48,0.12-0.931,0.363-1.404,0.553c-0.36,2.191-0.647,4.286-0.738,6.387c0.801,0.339,1.42,0.041,2.052-0.092
		c4.718-0.998,9.484-1.545,14.311-1.456c2.597,0.047,5.162,0.351,7.616,1.283c2.309,0.879,3.763,2.498,4.421,4.893
		c0.519,1.89,0.504,3.803,0.432,5.725c-0.016,0.412-0.194,0.819-0.302,1.246c-0.544,0.041-0.981,0.098-1.419,0.104
		c-3.629,0.053-7.236,0.366-10.824,0.895c-3.3,0.487-6.571,1.157-9.57,2.673c-6.029,3.045-9.261,7.865-9.028,14.759
		c0.157,4.668,2.23,8.217,6.367,10.441c1.159,0.624,2.435,1.065,3.698,1.454c2.23,0.687,4.543,0.561,6.829,0.412
		c4.978-0.322,9.589-1.704,13.541-4.893c0.275-0.222,0.603-0.379,0.985-0.614c0.782,1.474,0.158,3.208,1.239,4.649
		C297.67,199.65,300.094,199.548,302.821,199.434z M330.083,178.772c2.018,0.919,4.058,1.791,6.041,2.777
		c0.917,0.457,1.773,1.075,2.567,1.729c2.434,2.009,2.902,7.387-1.343,9.285c-0.805,0.36-1.65,0.693-2.512,0.851
		c-1.378,0.252-2.78,0.438-4.179,0.491c-4.773,0.181-9.441-0.471-13.988-1.957c-0.455-0.148-0.947-0.179-1.4-0.259
		c-0.869,2.719-1.41,5.551-1.356,7.104c0.387,0.124,0.793,0.301,1.217,0.382c5.176,0.993,10.401,1.494,15.669,1.302
		c3.259-0.12,6.482-0.559,9.521-1.888c4.02-1.758,6.532-4.755,7.407-9.056c0.234-1.151,0.285-2.349,0.333-3.528
		c0.136-3.373-1.125-6.198-3.45-8.599c-1.303-1.344-2.796-2.448-4.457-3.266c-2.65-1.304-5.365-2.479-8.056-3.701
		c-1.748-0.796-3.532-1.523-5.243-2.394c-0.979-0.497-1.942-1.113-2.739-1.862c-3.054-2.868-2.128-7.484,1.76-8.989
		c0.55-0.213,1.123-0.402,1.702-0.488c1.242-0.186,2.493-0.392,3.745-0.419c4.018-0.089,7.972,0.373,11.816,1.606
		c0.472,0.151,0.956,0.263,1.421,0.389c0.814-2.082,1.5-5.449,1.438-7.043c-0.315-0.11-0.648-0.271-1-0.344
		c-5.622-1.159-11.3-1.414-16.998-0.829c-1.524,0.157-3.037,0.642-4.499,1.14c-2.597,0.886-4.63,2.574-6.252,4.774
		c-3.284,4.457-4.186,12.008,2.108,17.08 M54.216,31.831c-0.049-2.724,0.396-5.237,1.274-7.68c0.822-2.286,2.196-4.169,4.114-5.671
		c1.294-1.013,2.722-1.772,4.215-2.435c0.377-0.167,0.912-0.159,1.01-0.726c-1.55-2.438-3.099-4.332-4.394-5.33
		c-3.658,1.333-7.05,3.219-9.939,5.962c-2.816,2.673-4.681,5.874-5.456,9.704c-0.544,2.692-0.869,5.407-0.888,8.149
		c-0.03,4.44-0.013,8.881-0.003,13.321c0.001,0.573,0.082,1.146,0.13,1.781c0.374,0.075,0.653,0.179,0.932,0.179
		c5.772,0.011,11.545,0.014,17.317-0.002c0.34-0.001,0.68-0.173,0.965-0.251c0.064-0.258,0.131-0.4,0.132-0.544
		c0.007-5.106,0.012-10.213,0.001-15.319c-0.001-0.267-0.143-0.533-0.242-0.884C60.315,31.817,57.29,32.217,54.216,31.831z
		 M94.623,49.102c0.092-0.583,0.175-0.867,0.175-1.152c0.003-5.024-0.003-10.05-0.019-15.075c-0.001-0.204-0.118-0.408-0.231-0.779
		c-2.945-0.288-5.964,0.112-9.038-0.247c-0.028-0.477-0.077-0.831-0.065-1.183c0.062-1.933,0.443-3.813,0.994-5.658
		c1.02-3.422,3.108-6.002,6.214-7.749c0.771-0.434,1.59-0.78,2.381-1.18c0.369-0.187,0.723-0.402,1.087-0.606
		c-1.358-2.261-3.12-4.453-4.405-5.482c-3.684,1.311-7.063,3.217-9.961,5.939c-3.007,2.823-4.944,6.25-5.58,10.336
		c-0.362,2.331-0.703,4.686-0.769,7.037c-0.134,4.801-0.081,9.605-0.085,14.409c-0.001,0.414,0.144,0.828,0.242,1.356
		C81.925,49.142,88.184,49.098,94.623,49.102z M395.807,236.783c0.27,1.384,0.114,2.481-0.074,3.565
		c-0.33,1.897-0.76,3.782-1.707,5.478c-0.573,1.024-1.237,2.019-1.991,2.916c-1.801,2.146-4.281,3.321-6.819,4.371
		c1.135,1.995,3.213,4.642,4.497,5.725c4.663-1.737,8.849-4.247,12.065-8.213c1.417-1.748,2.425-3.693,3.023-5.866
		c0.79-2.868,1.211-5.793,1.247-8.755c0.06-4.953,0.02-9.907,0.007-14.86c-0.001-0.42-0.107-0.84-0.154-1.187
		c-0.274-0.107-0.407-0.204-0.541-0.205c-5.322-0.022-10.645-0.04-15.967-0.048c-0.736-0.002-1.475,0.044-2.211,0.071
		c-0.072,0.003-0.152,0.02-0.213,0.056c-0.062,0.036-0.104,0.104-0.319,0.337c-0.144,1.641-0.04,3.478-0.059,5.309
		c-0.019,1.848-0.036,3.697,0.005,5.544c0.041,1.825-0.188,3.667,0.176,5.535c1.536,0.328,3.013,0.134,4.474,0.174
		C392.713,236.77,394.181,236.766,395.807,236.783z M417.975,219.776c-0.135,2.937-0.085,5.66-0.062,8.38
		c0.024,2.781-0.175,5.572,0.15,8.449c3.108,0.335,6.132-0.081,9.118,0.248c0.398,1.39-0.028,2.614-0.219,3.828
		c-0.881,5.607-3.808,9.669-9.136,11.874c-0.441,0.184-0.853,0.442-1.285,0.67c1.702,2.733,3.328,4.732,4.515,5.565
		c2.929-1.03,5.672-2.453,8.142-4.371c3.736-2.901,6.439-6.498,7.312-11.256c0.293-1.595,0.53-3.206,0.671-4.82
		c0.504-5.751,0.201-11.518,0.255-17.277c0.004-0.414-0.16-0.83-0.255-1.29C430.821,219.776,424.559,219.776,417.975,219.776z"/>
	<path fill-rule="evenodd" clip-rule="evenodd" d="M293.728,176.022c0,1.438-0.018,2.761,0.003,4.084
		c0.043,2.732,0.073,5.466,0.178,8.195c0.039,1.004-0.323,1.647-1.142,2.196c-2.381,1.596-5.01,2.525-7.815,2.93
		c-2.416,0.349-4.853,0.433-7.29,0.113c-1.332-0.175-2.608-0.518-3.776-1.188c-1.639-0.942-2.635-2.343-2.855-4.239
		c-0.464-3.969,0.894-7.099,4.328-9.246c1.648-1.029,3.451-1.693,5.343-2.067c3.998-0.79,8.042-1.107,12.116-1.02
		C293.023,175.785,293.229,175.887,293.728,176.022z"/>
</g>
</svg>
